<svg width="99" height="113" viewBox="0 0 99 113" fill="none" xmlns="http://www.w3.org/2000/svg">
<path fill-rule="evenodd" clip-rule="evenodd" d="M29.76 22.5146C32.544 24.4346 36.864 31.8266 38.304 36.1466C40.8 43.6346 37.92 48.5306 44.448 52.4666C50.976 56.3066 56.352 64.4666 58.368 71.8586C59.232 74.9306 58.944 78.8666 60 81.5546C61.632 85.9706 67.968 90.0986 74.112 86.3546C80.448 82.5146 78.048 77.2346 80.352 70.1306C82.368 63.6986 87.072 57.4586 91.872 53.9066C92.832 53.1386 94.176 52.4666 95.136 51.6026C99.648 47.8586 100.128 40.7546 95.52 36.4346C94.176 35.0906 92.544 34.8986 89.088 31.5386C75.36 18.1946 82.56 6.77063 74.592 1.58663C69.6 -1.67737 62.496 0.146626 60 6.57863C56.928 14.7386 64.896 18.4826 67.296 20.4026C75.552 27.2186 81.792 39.8906 78.048 51.6026C76.8 55.4426 71.712 64.4666 69.408 65.4266C66.816 64.1786 62.208 55.4426 60.864 51.8906C58.56 45.1706 61.152 39.4106 54.912 35.3786C52.416 33.7466 50.784 32.7866 48.864 30.5786C38.112 17.7146 41.184 12.1466 39.264 6.48263C37.632 1.68263 30.912 -2.06137 24.864 1.49063C16.128 6.57863 24.096 17.7146 10.176 31.3466C6.144 35.2826 0.192 37.1066 0 43.6346C0 47.0906 1.344 49.5866 3.36 51.3146C5.472 53.1386 7.584 54.0986 9.792 56.1146C12.864 58.9946 16.8 65.1386 18.336 69.9386C20.64 76.8506 18.528 82.4186 24.288 86.1626C30.048 90.0026 36.672 86.9306 38.784 81.6506C40.032 78.5786 39.552 75.4106 38.016 72.8186C35.232 68.3066 28.8 68.6906 22.368 54.7706C19.68 49.0106 19.104 42.7706 21.12 36.3386C22.464 32.3066 27.072 23.8586 29.76 22.5146Z" fill="white"/>
<path fill-rule="evenodd" clip-rule="evenodd" d="M4.63478 111.981C5.59478 112.365 7.22678 112.365 8.37878 112.269C10.2988 112.173 10.1068 111.981 10.1068 110.061C10.1068 107.469 9.91478 104.781 10.1068 102.189C12.5068 104.877 16.3468 111.693 17.6908 112.173C18.6508 112.461 22.2988 112.365 23.1628 111.981C23.8348 110.637 23.8348 95.6606 23.0668 94.6046C22.2988 93.9326 18.8428 93.9326 17.9788 94.6046C17.1148 95.8526 17.5948 101.997 17.5948 104.109C16.6348 103.533 13.5628 98.8286 12.6988 97.3886C10.9708 94.9886 10.9708 93.2606 4.53878 94.3166C3.86678 96.2366 4.34678 101.133 4.25078 103.437C4.25078 105.645 3.48278 110.349 4.63478 111.981Z" fill="white"/>
<path fill-rule="evenodd" clip-rule="evenodd" d="M37.5727 97.6099C44.2927 95.8819 45.0607 106.634 39.9727 107.786C33.1567 109.13 32.2927 98.9539 37.5727 97.6099ZM28.2607 104.906C30.4687 115.85 51.5887 114.986 49.1887 100.49C47.2687 89.2579 25.3807 90.6019 28.2607 104.906Z" fill="white"/>
<path fill-rule="evenodd" clip-rule="evenodd" d="M59.1658 98.4038C63.6778 98.3078 67.0378 98.4038 66.9418 103.396C66.7498 108.1 63.3898 108.1 59.0698 108.004L59.1658 98.4038ZM53.5018 112.036C56.3818 112.708 66.3658 112.9 70.0138 109.924C74.9098 106.084 74.5258 94.5638 63.4858 94.1798C50.6218 93.7958 53.2138 93.1238 53.2138 103.012C53.2138 105.508 52.9258 110.116 53.5018 112.036Z" fill="white"/>
<path fill-rule="evenodd" clip-rule="evenodd" d="M86.1582 97.7709C92.4942 95.1789 94.5102 105.643 89.6142 107.467C83.0862 109.963 80.7822 99.9789 86.1582 97.7709ZM77.2302 104.875C79.3422 115.819 100.75 114.955 98.1582 100.363C96.2382 89.4189 74.5422 90.4749 77.2302 104.875Z" fill="white"/>
</svg>
